<svg xmlns="http://www.w3.org/2000/svg" width="256" height="256" viewBox="0 0 256 256" version="1.1">
	<path d="M 162.083 54.642 C 148.745 68.272, 137.170 80.703, 136.362 82.266 C 133.689 87.435, 133.522 94.130, 135.929 99.573 C 137.122 102.269, 139.070 105.510, 140.258 106.775 L 142.418 109.074 90.974 160.526 L 39.529 211.979 46.999 219.499 L 54.470 227.020 91.235 190.265 L 128 153.510 164.765 190.265 L 201.530 227.020 209 219.500 L 216.470 211.980 179.725 175.225 L 142.980 138.470 150.320 131.178 C 156.858 124.685, 157.808 124.063, 159.001 125.501 C 162.066 129.195, 168.873 132.163, 174.392 132.213 C 183.508 132.295, 186.374 130.174, 212.477 104.038 L 236.454 80.030 231.501 75.001 L 226.548 69.973 209.288 87.212 L 192.027 104.452 187 99.500 L 181.973 94.548 199.212 77.288 L 216.452 60.027 211.500 55 L 206.548 49.973 189.288 67.212 L 172.027 84.452 167 79.500 L 161.973 74.548 179.225 57.275 L 196.477 40.001 191.406 34.930 L 186.335 29.859 162.083 54.642 M 38.429 41.250 C 31.557 49.376, 28.011 62.815, 29.835 73.824 C 31.955 86.615, 34.508 90.093, 61.720 117.253 L 86.520 142.005 101.501 126.999 L 116.482 111.993 79.496 74.996 C 59.154 54.648, 42.210 38, 41.844 38 C 41.478 38, 39.941 39.462, 38.429 41.250" stroke="none" fill="black" fill-rule="evenodd"/>
</svg>