<svg xmlns="http://www.w3.org/2000/svg" data-name="Layer 1" width="841.45747" height="405.08742" viewBox="0 0 841.45747 405.08742" xmlns:xlink="http://www.w3.org/1999/xlink"><path d="M192.09194,524.368c-18.93571-41.88446-18.23752-94.975,11.15-130.31889a211.78285,211.78285,0,0,0,75.80085,124.0819c15.12988,11.94661,33.20189,23.65875,37.335,42.48841,2.572,11.71622-1.07351,24.10868-7.37568,34.31445-6.30274,10.20612-15.08781,18.60159-23.773,26.87545l-.97445,2.83146C246.46268,598.47533,211.02764,566.2525,192.09194,524.368Z" transform="translate(-179.27126 -247.45629)" fill="#f0f0f0"/><path d="M204.05993,394.56019c-6.76319,37.03391-1.73891,76.46829,14.69984,110.39831,3.554,7.33559,7.79769,14.46765,13.47937,20.36749A44.70917,44.70917,0,0,0,252.538,537.2268c7.14748,2.08686,14.70025,3.39378,21.216,7.18174,6.86792,3.99272,11.13011,10.69219,12.79049,18.375,2.03151,9.40007.56428,18.9695-1.19576,28.27773-1.9542,10.335-4.14774,21.03892-1.31593,31.42835.34311,1.25883-1.63022,1.71762-1.97281.46069-4.92686-18.07583,4.65221-35.90345,3.31326-54.07673-.62478-8.48-3.8089-16.82307-11.07989-21.73631-6.35816-4.29642-14.14549-5.65079-21.40073-7.70123-7.61813-2.153-14.45973-5.44172-20.28143-10.89692-5.95528-5.58037-10.48674-12.56156-14.21271-19.77411a175.61922,175.61922,0,0,1-16.873-52.231,184.22752,184.22752,0,0,1,.59847-62.57164c.23363-1.27927,2.16809-.673,1.936.59792Z" transform="translate(-179.27126 -247.45629)" fill="#fff"/><path d="M212.83458,494.21157a27.15836,27.15836,0,0,1-32.4716-13.503c-.58922-1.1627,1.18987-2.13293,1.77987-.96869a25.148,25.148,0,0,0,30.231,12.49883c1.2395-.40375,1.6931,1.57137.46069,1.97282Z" transform="translate(-179.27126 -247.45629)" fill="#fff"/><path d="M248.77454,536.646a52.34553,52.34553,0,0,0,4.23431-37.91218c-.33865-1.26,1.63458-1.71917,1.97281-.46069a54.44727,54.44727,0,0,1-4.48637,39.44211c-.61135,1.15425-2.32878.07874-1.72075-1.06924Z" transform="translate(-179.27126 -247.45629)" fill="#fff"/><path d="M200.75977,436.45327a15.373,15.373,0,0,0,12.04718-8.22493c.59642-1.16142,2.31328-.08463,1.72075,1.06924a17.22661,17.22661,0,0,1-13.30724,9.1285,1.047,1.047,0,0,1-1.21675-.75606,1.01806,1.01806,0,0,1,.75606-1.21675Z" transform="translate(-179.27126 -247.45629)" fill="#fff"/><path d="M358.87274,394.45941c-.35178.7358-.70357,1.47161-1.04715,2.22246a202.45365,202.45365,0,0,0-11.55665,30.74028c-.24593.81142-.48294,1.63743-.705,2.45422a213.43106,213.43106,0,0,0-6.48339,78.3109,207.26838,207.26838,0,0,0,5.62258,30.98629c3.67061,14.04667,8.76812,28.98479,7.61787,43.01084a35.5569,35.5569,0,0,1-.58152,4.36224L287.78449,625.61c-.1899.01584-.37164.04663-.56225.0629L284.74,627.34931c-.17369-.515-.34276-1.05288-.51644-1.56788-.102-.29832-.18974-.60535-.29174-.90367-.06348-.20164-.12631-.4038-.19512-.58213-.02138-.067-.04205-.13451-.05456-.187-.06881-.17833-.1138-.35128-.17369-.515q-1.43-4.50593-2.80173-9.04764c-.00892-.0146-.00892-.0146-.00359-.03791-6.90882-23.08818-11.95083-46.956-13.20988-70.83027-.03764-.7183-.08492-1.45078-.09334-2.18692a197.77973,197.77973,0,0,1,1.1148-32.25648,174.85065,174.85065,0,0,1,2.99416-17.43623A145.39737,145.39737,0,0,1,288.353,449.57369c15.54094-26.12154,39.263-46.98205,68.29588-54.55729C357.39172,394.82314,358.121,394.63806,358.87274,394.45941Z" transform="translate(-179.27126 -247.45629)" fill="#f0f0f0"/><path d="M359.22476,395.359c-27.697,25.49759-47.42761,60.0087-54.73041,96.99718-1.57885,7.99682-2.4845,16.24636-1.50011,24.37781a44.70907,44.70907,0,0,0,9.04236,21.72342c4.45043,5.96952,9.694,11.56031,12.61587,18.50771,3.07977,7.32293,2.44934,15.23822-.85049,22.37213-4.03744,8.72854-10.9704,15.48581-17.9799,21.85825-7.78271,7.07538-15.97861,14.30118-19.97273,24.3015-.48394,1.21168-2.33576.38992-1.85255-.81993,6.94908-17.39886,25.33089-25.86595,35.20338-41.18243,4.60669-7.147,7.08746-15.7255,4.24009-24.02609-2.48989-7.2585-7.89221-13.0284-12.45061-19.03372-4.7864-6.30568-8.269-13.05066-9.63289-20.9114-1.39519-8.0411-.81015-16.34344.55733-24.34555a175.61909,175.61909,0,0,1,17.97458-51.86226A184.22734,184.22734,0,0,1,358.039,393.71594c.95675-.88077,2.13628.768,1.18579,1.643Z" transform="translate(-179.27126 -247.45629)" fill="#fff"/><path d="M306.23382,480.20793a27.15836,27.15836,0,0,1-17.797-30.3315c.22957-1.2831,2.23422-.98664,2.00435.29816a25.148,25.148,0,0,0,16.61263,28.18079c1.23276.42389.40577,2.274-.81993,1.85255Z" transform="translate(-179.27126 -247.45629)" fill="#fff"/><path d="M309.38141,535.72778A52.34556,52.34556,0,0,0,335.588,508.00636c.48822-1.20992,2.34018-.38853,1.85255.81994a54.44729,54.44729,0,0,1-27.329,28.79121c-1.18307.55353-1.90681-1.33921-.73017-1.88973Z" transform="translate(-179.27126 -247.45629)" fill="#fff"/><path d="M331.36724,426.8213a15.373,15.373,0,0,0,14.571.68609c1.17547-.56825,1.898,1.32518.73017,1.88973a17.22665,17.22665,0,0,1-16.12108-.72327,1.047,1.047,0,0,1-.5163-1.33625,1.01806,1.01806,0,0,1,1.33624-.5163Z" transform="translate(-179.27126 -247.45629)" fill="#fff"/><g id="e36d5192-81ed-4486-9dc7-3aabf5bf620f" data-name="Group 228"><path id="eec6541e-7182-40d2-8839-37d6db66ade2-23" data-name="Path 3042" d="M740.66468,385.91382l-.272-.559c-.083-.17-8.228-17.2-3.687-33.986s20.159-27.387,20.315-27.492l.516-.345.272.559c.083.17,8.228,17.2,3.687,33.986s-20.16,27.388-20.317,27.492Zm20.17707-29.735c3.04813-14.31353-18.187-20.02561-22.63278-6.08277q-.24442.76657-.45731,1.55178c-3.966,14.656,1.991,29.55,3.35,32.645,2.734-1.989,15.385-11.844,19.351-26.5h0Q760.66916,356.99186,760.84175,356.17882Z" transform="translate(-179.27126 -247.45629)" fill="#3f3d56"/><path id="a9014b65-d248-4059-8312-b45b24de232b-24" data-name="Path 3043" d="M719.6607,357.93582c4.541,16.787,20.1,27.183,20.1,27.183s8.192-16.82,3.651-33.607-20.1-27.183-20.1-27.183S715.11969,341.14881,719.6607,357.93582Z" transform="translate(-179.27126 -247.45629)" fill="#e58325"/><path id="ab25dc1f-49f0-4119-9b11-8880659579f8-25" data-name="Path 3044" d="M740.91167,385.6788l-.62-.034c-.189-.01-19.028-1.171-31.491-13.3s-14.129-30.933-14.145-31.122l-.051-.618.62.034c.189.01,19.028,1.171,31.49,13.3s14.13,30.933,14.145,31.122Zm-31.355-14.109c10.882,10.6,26.788,12.627,30.155,12.946-.409-3.357-2.869-19.2-13.752-29.8h0q-.58365-.568-1.18566-1.10343c-10.92936-9.73056-26.28867,6.00075-16.37587,16.76509Q708.96165,370.98944,709.55663,371.56979Z" transform="translate(-179.27126 -247.45629)" fill="#3f3d56"/><path id="eb5ac145-5caa-4eb9-a8bf-cd04614f452d-26" data-name="Path 3045" d="M754.29972,354.32781c-12.461,12.13-13.983,30.777-13.983,30.777s18.681-1.02,31.142-13.15,13.9859-30.778,13.9859-30.778S766.76072,342.19683,754.29972,354.32781Z" transform="translate(-179.27126 -247.45629)" fill="#3f3d56"/><circle id="fe2e9284-0c2b-4a15-b6a0-6b994e8a2442" data-name="Ellipse 585" cx="560.78545" cy="65.97552" r="8.126" fill="#e58325"/><path id="a86ae965-8410-4628-8d67-c8bdb55cc5ff-27" data-name="Rectangle 453" d="M725.31169,381.76681h31a14,14,0,0,1,14,14h0c0,7.732-4.38188,35.7769-12.11386,35.7769l-38,1c-7.732,0-8.88614-29.04491-8.88614-36.7769h0A14,14,0,0,1,725.31169,381.76681Z" transform="translate(-179.27126 -247.45629)" fill="#e6e6e6"/></g><path id="a084342b-ec68-4bf1-835e-e1a712a99507-28" data-name="Path 3068" d="M659.15467,381.3608a10.52756,10.52756,0,0,0-1.316,1.007l-48.054-12.251-3.278-11.593-18.144,2.661,3.809,21.088a8.00007,8.00007,0,0,0,7.035,6.534l56.111,5.909a10.5,10.5,0,1,0,3.839-13.355Z" transform="translate(-179.27126 -247.45629)" fill="#ffb6b6"/><path id="b5ab2668-a5cc-41bf-8089-de1c0694ee81-29" data-name="Path 3070" d="M585.11969,371.7078l12.38,10.68,17.32,14.93,7.65-39.14.8-4.07.63-3.23-17.55-30.57-14.63.84-1,.06-.02.22-.23,2.05-3,26.98-.07.65Z" transform="translate(-179.27126 -247.45629)" fill="#e6e6e6"/><path id="a48a89e5-5415-44e6-8741-1c2f93951686-30" data-name="Path 3071" d="M666.03769,639.38279h12.26l5.833-47.288h-18.095Z" transform="translate(-179.27126 -247.45629)" fill="#ffb6b6"/><path id="b4ab5075-ce23-46e9-939e-e287d4f4a486-31" data-name="Path 3073" d="M538.03772,640.38279h12.26l5.833-47.288h-18.095Z" transform="translate(-179.27126 -247.45629)" fill="#ffb6b6"/><path id="b77a2f94-428a-4b99-b464-6e051b4fe742-32" data-name="Path 3075" d="M528.23865,619.55783l33,5,48.01-162.48,50.99,163.48,37-5-48-190v-15l-6.5-22.5.68-6.09,4.73-42.59,2.05-18.47.133-1.193a4.056,4.056,0,0,0-3.193-4.417h0l-15.4-3.24h-25.1659l-14.85,4.09-1.02.28-.46.13.23,1.92,3.48,29.18.19,1.6,3.36,28.13.74,6.17c-29,21-30,42-30,42Z" transform="translate(-179.27126 -247.45629)" fill="#2f2e41"/><circle id="b29dce1d-f666-44df-985a-547bf779e1a4" data-name="Ellipse 592" cx="442.92543" cy="32.39051" r="24.561" fill="#ffb6b6"/><rect id="a7f6a896-dcf1-4596-b70f-da8ad38f22ed" data-name="Rectangle 456" x="616.73843" y="365.06224" width="7" height="49" transform="translate(-25.73713 706.58938) rotate(-82.549)" fill="#e58325"/><path id="bd729490-aac7-4879-a04d-c9e945275ef2-33" data-name="Path 3076" d="M710.15467,391.3608a10.52756,10.52756,0,0,0-1.316,1.007l-48.054-12.251-3.278-11.593-18.144,2.661,3.809,21.088a8.00007,8.00007,0,0,0,7.035,6.534l56.111,5.909a10.5,10.5,0,1,0,3.839-13.355Z" transform="translate(-179.27126 -247.45629)" fill="#ffb6b6"/><path id="b6be5ba1-6394-41ea-b0bb-2e259093a5f0-34" data-name="Path 3077" d="M636.23865,326.5578l8.5-6.5c2.3-.872,5.447,1.605,6,4l12,49-25,18-3.5-5.5Z" transform="translate(-179.27126 -247.45629)" fill="#e6e6e6"/><path id="b6feaf63-857f-49b2-8f08-fe1d6a64856c-35" data-name="Path 3079" d="M641.01666,259.51181c4.593-.563,9.634-.165,13.214,2.767s4.736,9.028,1.346,12.178c-3,2.789-7.693,2.133-11.713,2.926a15.85394,15.85394,0,0,0-12.384,15.157c.06,10.174,9.824,17.879,11.578,27.9,1.2,6.84-1.688,14.038-6.675,18.87s-11.843,7.443-18.751,8.15-13.893-.373-20.606-2.148c-6.741-1.782-13.378-4.311-19.034-8.388s-10.293-9.826-12.109-16.558-.512-14.451,4.168-19.62c5.359-5.919,14.274-7.954,18.91-14.456,5.2-7.288,3.273-17.666,7.479-25.567,2.808-5.275,8.125-8.873,13.792-10.769s11.719-2.27,17.692-2.453c3.14-.1,6.375-.129,9.3,1.016s5.5,3.753,5.648,6.891S641.01666,259.51181,641.01666,259.51181Z" transform="translate(-179.27126 -247.45629)" fill="#2f2e41"/><path d="M366.79227,651.21581H264.64091a6.89783,6.89783,0,0,1-6.88965-6.89062v-63.6875a23.06516,23.06516,0,0,1,23.03955-23.03907h86.00146a6.89763,6.89763,0,0,1,6.88965,6.88965v79.83692A6.89783,6.89783,0,0,1,366.79227,651.21581Zm-86.00146-91.61719a21.0635,21.0635,0,0,0-21.03955,21.03907v63.6875a4.89586,4.89586,0,0,0,4.88965,4.89062H366.79227a4.89586,4.89586,0,0,0,4.88965-4.89062V564.48827a4.895,4.895,0,0,0-4.88965-4.88965Z" transform="translate(-179.27126 -247.45629)" fill="#3f3d56"/><path d="M284.1702,562.12987a21.17332,21.17332,0,0,0-21.14941,21.14942v58.40527a5.00588,5.00588,0,0,0,5,5h95.39209a5.00588,5.00588,0,0,0,5-5V567.12987a5.00589,5.00589,0,0,0-5-5Z" transform="translate(-179.27126 -247.45629)" fill="#e58325"/><path d="M323.06648,581.2068h-14.166a2.50264,2.50264,0,0,1-2.5-2.5V555.62965h19.166V578.7068A2.50263,2.50263,0,0,1,323.06648,581.2068Z" transform="translate(-179.27126 -247.45629)" fill="#3f3d56"/><path d="M890.37654,535.83277l4.37353-11.66113.15674-.08984,35.2378-20.13575a4.21144,4.21144,0,0,1,1.21728-.46191,4.19508,4.19508,0,0,1,2.91357,7.76562Z" transform="translate(-179.27126 -247.45629)" fill="#3f3d56"/><path d="M760.793,535.83277l-43.894-24.58105a4.19618,4.19618,0,0,1,2.91455-7.76758,4.20332,4.20332,0,0,1,1.2168.46191l35.395,20.22559Z" transform="translate(-179.27126 -247.45629)" fill="#3f3d56"/><path id="a917e09e-7501-48ae-a084-2a300f5c05f4-36" data-name="Path 3060" d="M893.87866,537.2808H757.2927l-11.488-53.613h159.562Z" transform="translate(-179.27126 -247.45629)" fill="#3f3d56"/><path d="M898.37675,533.05858h-145.582l-10.01416-45.62207a9.50851,9.50851,0,0,1,9.28662-11.54687H899.10477a9.50788,9.50788,0,0,1,9.28614,11.54687Zm-143.97364-2H896.76835l9.66943-44.05175a7.50707,7.50707,0,0,0-7.333-9.11719H752.06718a7.508,7.508,0,0,0-7.3335,9.11816Z" transform="translate(-179.27126 -247.45629)" fill="#3f3d56"/><path id="be148f51-17c4-4ec3-8125-b7d3e9443af6-37" data-name="Path 3061" d="M893.87866,537.2808H757.2927l-11.488-53.613h159.562Z" transform="translate(-179.27126 -247.45629)" opacity="0.1" style="isolation:isolate"/><path d="M892.55546,651.3662H758.616a6.86064,6.86064,0,0,1-6.853-6.85254V529.98925h147.6455V644.51366A6.86063,6.86063,0,0,1,892.55546,651.3662ZM753.763,531.98925V644.51366a4.85834,4.85834,0,0,0,4.853,4.85254H892.55546a4.85834,4.85834,0,0,0,4.853-4.85254V531.98925Z" transform="translate(-179.27126 -247.45629)" fill="#3f3d56"/><path d="M757.15486,534.58863V641.26637a5.50654,5.50654,0,0,0,5.5,5.5H888.51668a5.50654,5.50654,0,0,0,5.5-5.5V534.58863Z" transform="translate(-179.27126 -247.45629)" fill="#3f3d56"/><path d="M905.86677,484.16773h-160.562v-.5A6.43511,6.43511,0,0,1,751.7325,477.24H899.43855a6.43553,6.43553,0,0,1,6.42822,6.42773Z" transform="translate(-179.27126 -247.45629)" fill="#e58325"/><path d="M401.07743,580.44726A18.60745,18.60745,0,0,0,382.491,599.03319v42.65332a5.00589,5.00589,0,0,0,5,5h72.667a5.00589,5.00589,0,0,0,5-5V585.44726a5.00589,5.00589,0,0,0-5-5Z" transform="translate(-179.27126 -247.45629)" fill="#3f3d56"/><path d="M476.4412,576.18065H402.99589a7.037,7.037,0,0,1-7.0293-7.02832V507.50292a7.03725,7.03725,0,0,1,7.0293-7.0293h65.54052a21.16915,21.16915,0,0,1,21.14551,21.14551v41.32129A13.25553,13.25553,0,0,1,476.4412,576.18065Zm-73.44531-73.707a5.035,5.035,0,0,0-5.0293,5.0293v61.64941a5.03475,5.03475,0,0,0,5.0293,5.02832H476.4412a11.25292,11.25292,0,0,0,11.24072-11.24023V521.61913a19.16748,19.16748,0,0,0-19.14551-19.14551Z" transform="translate(-179.27126 -247.45629)" fill="#3f3d56"/><path d="M463.65263,651.41991H383.99589a7.037,7.037,0,0,1-7.0293-7.02832v-48.0625a20.639,20.639,0,0,1,20.61572-20.61621h66.07032a7.03725,7.03725,0,0,1,7.02929,7.0293v61.64941A7.037,7.037,0,0,1,463.65263,651.41991Zm-66.07032-73.707a18.63734,18.63734,0,0,0-18.61572,18.61621v48.0625a5.03475,5.03475,0,0,0,5.0293,5.02832h79.65674a5.03475,5.03475,0,0,0,5.02929-5.02832V582.74218a5.035,5.035,0,0,0-5.02929-5.0293Z" transform="translate(-179.27126 -247.45629)" fill="#3f3d56"/><path d="M406.491,505.208a5.00589,5.00589,0,0,0-5,5v56.23926a5.00589,5.00589,0,0,0,5,5h66.45557A11.22407,11.22407,0,0,0,484.158,560.23534V524.32421A19.13789,19.13789,0,0,0,465.0413,505.208Z" transform="translate(-179.27126 -247.45629)" fill="#e6e6e6"/><path d="M448.19587,520.08375H437.87361a2.50263,2.50263,0,0,1-2.5-2.5v-17.876h15.32226v17.876A2.50263,2.50263,0,0,1,448.19587,520.08375Z" transform="translate(-179.27126 -247.45629)" fill="#3f3d56"/><path d="M665.53132,629.35015l14.66651-.87539v6.28377l13.94385,9.63012a3.92508,3.92508,0,0,1-2.23036,7.15506h-17.461l-3.00967-6.21561-1.17513,6.21561H663.682Z" transform="translate(-179.27126 -247.45629)" fill="#2f2e41"/><path d="M537.53132,629.35015l14.66651-.87539v6.28377l13.94385,9.63012a3.92508,3.92508,0,0,1-2.23036,7.15506h-17.461l-3.00967-6.21561-1.17513,6.21561H535.682Z" transform="translate(-179.27126 -247.45629)" fill="#2f2e41"/><path d="M289.19783,632.07105H262.02058a1,1,0,0,1,0-2h27.17725a1,1,0,1,1,0,2Z" transform="translate(-179.27126 -247.45629)" fill="#3f3d56"/><path d="M409.19783,630.07105H382.02058a1,1,0,0,1,0-2h27.17725a1,1,0,1,1,0,2Z" transform="translate(-179.27126 -247.45629)" fill="#e58325"/><path d="M785.19783,622.54371H758.02058a1,1,0,0,1,0-2h27.17725a1,1,0,0,1,0,2Z" transform="translate(-179.27126 -247.45629)" fill="#e58325"/><path d="M796.19783,612.54371H769.02058a1,1,0,0,1,0-2h27.17725a1,1,0,0,1,0,2Z" transform="translate(-179.27126 -247.45629)" fill="#e58325"/><path d="M745.19783,418.54371H718.02058a1,1,0,0,1,0-2h27.17725a1,1,0,0,1,0,2Z" transform="translate(-179.27126 -247.45629)" fill="#e58325"/><path d="M428.19783,558.07105H401.02058a1,1,0,0,1,0-2h27.17725a1,1,0,1,1,0,2Z" transform="translate(-179.27126 -247.45629)" fill="#3f3d56"/><path d="M428.19783,550.07105H401.02058a1,1,0,0,1,0-2h27.17725a1,1,0,1,1,0,2Z" transform="translate(-179.27126 -247.45629)" fill="#3f3d56"/><path d="M831.14636,500.77107H820.8241a2.50263,2.50263,0,0,1-2.5-2.5v-17.876h15.32226v17.876A2.50263,2.50263,0,0,1,831.14636,500.77107Z" transform="translate(-179.27126 -247.45629)" fill="#e58325"/><rect id="af895076-55e2-4ce3-b817-4381b6fe19d2" data-name="Rectangle 450" x="5.45747" y="403.08742" width="836" height="2" fill="#ccc"/><path d="M429.19587,594.866H418.87361a2.50263,2.50263,0,0,1-2.5-2.5V574.49h15.32226v17.876A2.50263,2.50263,0,0,1,429.19587,594.866Z" transform="translate(-179.27126 -247.45629)" fill="#e58325"/></svg>